<?xml version="1.0" encoding="utf-8"?>
<!-- Generator: Adobe Illustrator 22.1.0, SVG Export Plug-In . SVG Version: 6.00 Build 0)  -->
<svg version="1.1" id="Layer_1" xmlns="http://www.w3.org/2000/svg" xmlns:xlink="http://www.w3.org/1999/xlink" x="0px" y="0px"
	 viewBox="0 0 453.5 255.1" style="enable-background:new 0 0 453.5 255.1;" xml:space="preserve">
<style type="text/css">
	.st0{clip-path:url(#SVGID_2_);}
	.st1{fill:#676969;}
	.st2{fill:#505253;}
	.st3{fill:#3C3E3F;}
	.st4{fill:#DDE0E2;}
	.st5{fill:#A0764C;}
	.st6{fill:#825A35;}
	.st7{fill:#B3885B;}
	.st8{fill:#5F4025;}
	.st9{fill:#906841;}
	.st10{fill:#E8A52D;}
	.st11{fill:#FADA3C;}
	.st12{fill:#FDF07F;}
</style>
<g id="Layer_1_1_">
	<g>
		<defs>
			<rect id="SVGID_1_" x="0.1" y="0.3" width="453.5" height="453.4"/>
		</defs>
		<clipPath id="SVGID_2_">
			<use xlink:href="#SVGID_1_"  style="overflow:visible;"/>
		</clipPath>
		<g class="st0">
			<path class="st1" d="M0.1,0.3h453.5v453.4H0.1V0.3z"/>
			<path class="st2" d="M226.8,171.1h-1.3l0.7,1.4L226.8,171.1z M227.6,148.8l4.9,10.3l4.9-10.3H227.6z M230.2,137.2H222l4.1,8.4
				L230.2,137.2z M433.3,133.9l9.2-19h-5.4l1.8,3.6h-13l7.1,14.7L433.3,133.9z M433.3,160.7l0.3-0.8l3.6-7.5h-8L433.3,160.7z
				 M391,138.9l2.5-5.2h-5L391,138.9z M336.8,163.3L347,142h-13l0.9-1.8h-9.4L336.8,163.3z M336.8,190.2l6.9-14.3h-13l0.9-1.8H329
				L336.8,190.2z M284.5,156.1l3,6.3l3-6.3H284.5z M286,138.9h-9.8L281,149l4.1-8.6L286,138.9z M260.9,147.2l4-8.4h-8.1L260.9,147.2
				z M254.4,160.7l5.1-10.6l0.5-1.2h-11.4l5.4,11.2L254.4,160.7z M260.9,174.1l0.6-1.3h-1.2L260.9,174.1z M279.6,172.8l1.5,3.1
				l1.5-3.1H279.6z M206.2,134.1h-5.4l9.2,19l7.7-15.8h-13L206.2,134.1z M184.3,145.2l5.3-11.1h-10.8L184.3,145.2z M177.8,158.6
				l4.8-9.9h-9.5L177.8,158.6z M184.3,172l2-4h-3.9L184.3,172z M205.8,171.1l4.3,8.8l4.3-8.8H205.8z M137.3,121.9l2.7-5.5h-5.3
				L137.3,121.9z M130.9,135.3l3.8-7.8l0.4-0.8h-8.3L130.9,135.3z M130.9,162.2l0.8-1.5h-1.5L130.9,162.2z M154.6,150.2l6.6,13.8
				l7.4-15.3h-1.8l0.8,1.5L154.6,150.2L154.6,150.2z M115,160.7l0.8,1.6h-13l7.7,15.9l8.5-17.5H115z M111.6,126.7l0.8,1.6h-13
				l11.1,23l11.9-24.6H111.6z M90.1,111.8l3.7-7.7h-7.4L90.1,111.8z M90.1,138.7l0.3-0.6h-0.6L90.1,138.7z M36.1,109.7l9-18.5h-4.9
				l1.4,2.8h-13l7.1,14.7L36.1,109.7z M36.1,136.6l1.9-3.8l2.3-4.9h-8.4L36.1,136.6z M69.3,172l2.9,6.2l2.9-6.2H69.3z M68.4,159.1
				H63l2,4.1l0.8,1.5L68.4,159.1z M65.8,138l6.4,13.2l6.4-13.2H65.8z M59.6,125.1l6.2,12.7l6.2-12.7H59.6z M16.4,127.9l2.1,4.5
				l2.1-4.5H16.4z M13,94l5.6,11.5L24.1,94H13z M13.1,116.8H11l0.3,0.5l0.8,1.6L13.1,116.8z M15,106.1l1.6,3.4l0.4-0.8l1.2-2.5
				L15,106.1L15,106.1z M453.6,102.1v12.7h-6.9l6.9,14.1v19.8h-3.4l3.4,7.1v94.8c-143,0.1-303.7,1.8-453.6,2V41.4l0.3-0.5l15.2,31.4
				h-13l9.6,19.9l14.2-29.4L36.1,83l12.3-25.6h-13l15.2-31.4l15.2,31.3h-13L59.9,72c3.1,6.4,6.2,12.8,9.3,19.2h-13l16,33.2l9.8-20.3
				h-13l15.2-31.4l12.3,25.6l0.7-1.4l13.2,27.4l14.1-29.1l6.3,13.1l12.6-26h-13L145.6,51l15.2,31.4h-13l7.1,14.7
				c3.1,6.4,6.2,12.8,9.3,19.2h-13l10.1,20.8l9.5-19.8l6.9,14.4l15.3-31.7h-13l15.2-31.4l15.2,31.4h-13l12.6,26.1l9.8-20.3
				l12.8,26.4l8.4-17.3h-13l15.2-31.4l15.2,31.4h-13l9.1,18.8l13.9-28.8h-13l15.2-31.4l15.2,31.4h-13l14.8,30.6l5.2-10.8l15.2,31.4
				h-13l7.1,14.7c10.6,22.1,6.6,22.3,15.8,3.3h-13c3.1-6.4,6.2-12.8,9.3-19.2l7.1-14.7h-13l15.2-31.4l13.4,27.6l12.5-25.8l15.2,31.4
				h-13l7.1,14.7c3.1,6.4,6.2,12.8,9.3,19.2h-13l5.4,11.2l15.2-8.3l5.4-11.2h-13c3.1-6.4,6.2-12.8,9.3-19.2l7.1-14.7h-13l15.2-31.4
				l11.2,23.1l4.7-9.7l10.3,21.3l9-18.6h-13L424,87l9.6,19.9l11.4-23.5L453.6,102.1z M35.3,161.8l0.8,1.6l0.1-0.3l0.6-1.3H35.3"/>
			<path class="st3" d="M0,179.7l88.2,12.7c24.7,3.6,46.3,3.7,71,0.5l42.2-5.4c29-3.7,54.2-2.9,82.9,2.5l4.7,0.9
				c26.9,5.1,50.7,6.1,77.9,3.1l86.6-9.5v163.8H0V179.7"/>
		</g>
	</g>
	<path class="st4" d="M402.2,31.2l1,3.2l3.2,1l-3.2,1l-1,3.2l-1-3.2l-3.2-1l3.2-1L402.2,31.2z M386.1,54.6l0.7,2.3l2.3,0.7l-2.3,0.7
		l-0.7,2.3l-0.7-2.3l-2.3-0.7l2.3-0.7L386.1,54.6z M378,78.7l0.5,1.7l1.7,0.5l-1.7,0.5l-0.5,1.7l-0.5-1.7l-1.7-0.5l1.7-0.5L378,78.7
		z M360.2,103.3l0.2,0.8l0.8,0.2l-0.8,0.2l-0.2,0.8l-0.2-0.8l-0.8-0.2l0.8-0.2L360.2,103.3z M313,80.4l0.5,1.7l1.7,0.5l-1.7,0.5
		l-0.5,1.7l-0.5-1.7l-1.7-0.5l1.7-0.5L313,80.4z M322.7,34.4l0.4,1.4l1.4,0.4l-1.4,0.4l-0.4,1.4l-0.4-1.4l-1.4-0.4l1.4-0.4
		L322.7,34.4z M333.2,47.3l0.5,1.7l1.7,0.5l-1.7,0.5l-0.5,1.7l-0.5-1.7l-1.7-0.5l1.7-0.5L333.2,47.3z M344.1,96.1l0.4,1.4l1.4,0.4
		l-1.4,0.4l-0.4,1.4l-0.4-1.4l-1.4-0.4l1.4-0.4L344.1,96.1z M367.2,150l0.3,1.1l1.1,0.3l-1.1,0.3l-0.3,1.1l-0.3-1.1l-1.1-0.3
		l1.1-0.3L367.2,150z M412.9,94.9l1,3.4l3.4,1l-3.4,1l-1,3.4l-1-3.4l-3.4-1l3.4-1L412.9,94.9z M93.3,60.2l0.4,1.2l1.2,0.4l-1.2,0.4
		l-0.4,1.2l-0.4-1.2l-1.2-0.4l1.2-0.4L93.3,60.2z M267.7,45.7l0.2,0.6l0.6,0.2l-0.6,0.2l-0.2,0.6l-0.2-0.6l-0.6-0.2l0.6-0.2
		L267.7,45.7z M261.2,68.9l1,3.2l3.2,1l-3.2,1l-1,3.2l-1-3.2l-3.2-1l3.2-1L261.2,68.9z M285,108.6l0.8,2.5l2.5,0.8l-2.5,0.8
		l-0.8,2.5l-0.8-2.5l-2.5-0.8l2.5-0.8L285,108.6z M313,114.9l0.9,2.9l2.9,0.9l-2.9,0.9l-0.9,2.9l-0.9-2.9l-2.9-0.9l2.9-0.9
		L313,114.9z M213.2,87.6l0.4,1.2l1.2,0.4l-1.2,0.4l-0.4,1.2l-0.4-1.2l-1.2-0.4l1.2-0.4L213.2,87.6z M209,44.5l0.6,2l2,0.6l-2,0.6
		l-0.6,2l-0.6-2l-2-0.6l2-0.6L209,44.5z M232.8,35.6l0.5,1.7l1.7,0.5l-1.7,0.5l-0.5,1.7l-0.5-1.7l-1.7-0.5l1.7-0.5L232.8,35.6z
		 M233.5,73.5l0.2,0.8l0.8,0.2l-0.8,0.2l-0.2,0.8l-0.2-0.8l-0.8-0.2l0.8-0.2L233.5,73.5z M168.4,55l0.3,0.9l1,0.3l-1,0.3l-0.3,1
		l-0.3-1l-0.9-0.3l0.9-0.3L168.4,55z M169.4,18.7l0.5,1.7l1.7,0.5l-1.7,0.5l-0.5,1.7l-0.5-1.7l-1.7-0.5l1.7-0.5L169.4,18.7z
		 M200.1,5.8l0.7,2.3l2.3,0.7l-2.3,0.7l-0.7,2.3l-0.7-2.3l-2.3-0.7l2.3-0.7L200.1,5.8z M270.3,5.4l1.6,5.4l5.4,1.6l-5.4,1.6
		l-1.6,5.4l-1.6-5.4l-5.4-1.6l5.4-1.6L270.3,5.4z M346.9,7.8l0.7,2.3l2.3,0.7l-2.3,0.7l-0.7,2.3l-0.7-2.3l-2.3-0.7l2.3-0.7
		L346.9,7.8z M125.3,58.2l0.2,0.6l0.6,0.2l-0.6,0.2l-0.2,0.6l-0.2-0.6l-0.6-0.2l0.6-0.2L125.3,58.2z M103.3,31.2l0.4,1.4l1.4,0.4
		l-1.4,0.4l-0.4,1.4l-0.4-1.4l-1.4-0.4l1.4-0.4L103.3,31.2z M48.4,1.7L49,3.4L50.7,4L49,4.5l-0.5,1.7l-0.5-1.7L46.2,4l1.7-0.5
		L48.4,1.7z M30.3,20.7l0.8,2.6l2.6,0.8L31.1,25l-0.8,2.6L29.4,25l-2.6-0.8l2.6-0.8L30.3,20.7z M19.4,63.5l0.2,0.8l0.8,0.2l-0.8,0.2
		l-0.2,0.8l-0.2-0.8l-0.8-0.2l0.8-0.2L19.4,63.5z M58.3,46.5l0.5,1.8l1.9,0.5l-1.9,0.5l-0.5,1.9l-0.5-1.8l-1.9-0.5l1.9-0.5
		L58.3,46.5z M70,61.8l0.4,1.2l1.2,0.4l-1.2,0.4L70,65l-0.4-1.2l-1.2-0.4l1.2-0.4L70,61.8z M109.9,91l0.5,1.7l1.7,0.5l-1.7,0.5
		l-0.5,1.7l-0.5-1.7l-1.7-0.5l1.7-0.5L109.9,91z M155.1,82.8l0.8,2.5l2.5,0.8l-2.5,0.8l-0.8,2.5l-0.8-2.5l-2.5-0.8l2.5-0.8
		L155.1,82.8z M179.7,96.1l0.4,1.2l1.2,0.4l-1.2,0.4l-0.4,1.2l-0.4-1.2l-1.2-0.4l1.2-0.4L179.7,96.1z M177.4,111.4l0.8,2.8l2.7,0.8
		l-2.7,0.8l-0.8,2.8l-0.8-2.8l-2.8-0.8l2.8-0.8L177.4,111.4z M122.8,15.8l0.5,1.8l1.9,0.5l-1.9,0.5l-0.5,1.8l-0.5-1.8l-1.9-0.5
		l1.9-0.5L122.8,15.8z M135.8,33.6l0.3,1l1,0.3l-1,0.3l-0.3,1l-0.3-1l-1-0.3l1-0.3L135.8,33.6z M75.9,8.2l0.3,1.1l1.1,0.3l-1.1,0.3
		L75.9,11l-0.3-1.1l-1.1-0.3l1.1-0.3L75.9,8.2z M420.7,40.6l0.3,1l1,0.3l-1,0.3l-0.3,1l-0.3-1l-0.9-0.3l0.9-0.3L420.7,40.6z
		 M428.3,67.8l0.8,2.4l2.4,0.8l-2.4,0.8l-0.8,2.4l-0.8-2.4l-2.4-0.8l2.4-0.8L428.3,67.8z M442.3,49.1l0.5,1.7l1.7,0.5l-1.7,0.5
		l-0.5,1.7l-0.5-1.7l-1.7-0.5l1.7-0.5L442.3,49.1z M394.7,88.6l0.5,1.8l1.8,0.5l-1.8,0.5l-0.5,1.8l-0.5-1.8l-1.8-0.5l1.8-0.5
		L394.7,88.6z M368.6,117.5l0.3,1l1,0.3l-1,0.3l-0.3,0.9l-0.3-0.9l-1-0.3l1-0.3L368.6,117.5z M400.8,70.1l0.8,2.5l2.5,0.8l-2.5,0.8
		l-0.8,2.5l-0.8-2.5l-2.5-0.8l2.5-0.8L400.8,70.1z M438.1,3.8l1,3.2l3.2,1l-3.2,1l-1,3.2l-1-3.2l-3.2-1l3.2-1L438.1,3.8z M8.2,41.5
		l0.2,0.7l0.7,0.2l-0.7,0.2l-0.2,0.7L8,42.6l-0.7-0.2L8,42.2L8.2,41.5z M15.5,73.1l0.5,1.8l1.8,0.5L16,76l-0.5,1.8L14.9,76l-1.8-0.5
		l1.8-0.5L15.5,73.1z M33.1,42.7l0.6,2l2,0.6l-2,0.6l-0.6,2l-0.6-2l-2-0.6l2-0.6L33.1,42.7z M393.5,11.8l0.3,1l0.9,0.3l-0.9,0.3
		l-0.3,0.9l-0.3-0.9l-1-0.3l1-0.3L393.5,11.8"/>
	<g>
		<path class="st2" d="M220.7,242.6c31.8,0,57.8-10.4,57.8-23.2s-26-23.2-57.8-23.2c-31.8,0-57.8,10.4-57.8,23.2
			C162.9,232.1,188.8,242.6,220.7,242.6"/>
		<path class="st5" d="M187.7,197.9l-0.2,6l59.4,28.3l15.1-7.7L187.7,197.9"/>
		<path class="st6" d="M246.8,232.2l12.9-4.4l2.2-3.2l-13.3,4L246.8,232.2"/>
		<path class="st7" d="M248.6,228.6l13.3-4l-54.1-30.5l-20,3.9L248.6,228.6"/>
		<path class="st5" d="M255,226.6l-1.1,0.3l-9.2-5.7L255,226.6z M204.5,194.7l-0.8,0.1l20.4,11.3L204.5,194.7z M200.4,195.5
			l-1.2,0.2l19.1,9.9L200.4,195.5z M194.6,196.6l10.8,5.6l-12.1-5.3L194.6,196.6z M259.2,225.4l-18.1-8.3l16.8,8.6L259.2,225.4"/>
		<path class="st8" d="M255,226.6l-1.2,1.7l0-1.3L255,226.6z M259.2,225.4l-1.5,2l0.2-1.6L259.2,225.4"/>
		<path class="st9" d="M233.7,221.1l5,2.5l0.2,4.8l-16.9-8.1L233.7,221.1"/>
		<path class="st6" d="M265.1,208.7l-1.8,6.1l-75.1,15.9l-13.8-11L265.1,208.7"/>
		<path class="st5" d="M188.1,230.7l-12.6-7.3l-1.2-3.7l13.2,6.9L188.1,230.7"/>
		<path class="st7" d="M187.5,226.6l-13.2-6.9l70.2-19.2l20.6,8.3L187.5,226.6"/>
		<path class="st5" d="M181.2,223.3l1.1,0.6l12.1-3.8L181.2,223.3z M247.8,201.8l0.8,0.3l-26.4,7.1L247.8,201.8z M252.1,203.5
			l1.2,0.5l-24.4,5.9L252.1,203.5z M258,205.9l-13.7,3.3l15.1-2.7L258,205.9z M176.9,221.1l22.8-4.4l-21.5,5.1L176.9,221.1"/>
		<path class="st6" d="M181.2,223.3l0.7,1.9l0.4-1.4L181.2,223.3z M176.9,221.1l1,2.3l0.3-1.7L176.9,221.1"/>
		<path class="st5" d="M238.7,223.6l16.1-3.1l-5.1-2.9l-16,3.4L238.7,223.6"/>
		<path class="st6" d="M246.1,222.2l-1.5-0.9l1.7,0.8L246.1,222.2z M250.5,221.3l-5.8-2.6l-0.3,0l5.3,2.7L250.5,221.3"/>
		<path class="st10" d="M205.5,162c-20-1.5-6.7-17.2-7.3-25.4C208.1,141.2,200.8,153.6,205.5,162"/>
		<path class="st10" d="M221.3,206.7c-40.3-0.4-25.5-31.4-41.4-45.1c7.3-1.7,18.9,2.1,22.9,7.8c8.1-15.6,13.7-31.3,1.2-47.8
			c19.4,2.7,35,21.7,30.5,38.9c7.8-7.2,15.4-10.3,26.7-6.1C247,171.6,261.6,207.2,221.3,206.7"/>
		<path class="st10" d="M201.2,119.7c-8.1-0.6-6.6-7.6-2.9-10.2C197.7,113.3,199.3,116.3,201.2,119.7"/>
		<path class="st10" d="M237,155.5c7.5-3.8,3.9-11.5-0.4-13.2C238.4,146.5,237.8,150.7,237,155.5"/>
		<path class="st10" d="M197.2,136c-4.2-2.2-2.2-6.4,0.2-7.3C196.5,131,196.8,133.3,197.2,136"/>
		<path class="st10" d="M243.3,150c7.2-1.2,9.7-9.6-0.7-11.6C245.7,142.2,244.6,145.9,243.3,150"/>
		<path class="st11" d="M221,205.3c-21.4-0.2-24.4-16.8-27.2-25.9c4.2,4.8,10.8,5.5,15.4,4.7c5.3-8.5,11.4-19.9,8.4-34.5
			c8.3,10.5,13.1,17.1,12.7,29.3c4.8,0.6,10.4-3.3,17-11.9C246.2,179.7,242.4,205.6,221,205.3"/>
		<path class="st12" d="M220.7,203c-8.6-0.1-9.8-6.7-10.9-10.4c1.7,1.9,4.3,2.2,6.2,1.9c2.1-3.4,4.6-8,3.3-13.8
			c3.3,4.2,5.2,6.8,5.1,11.8c1.9,0.2,4.2-1.3,6.8-4.8C230.8,192.7,229.3,203.1,220.7,203"/>
		<path class="st10" d="M220,90.9c-8.1-0.6-6.6-7.6-2.9-10.2C216.4,84.5,218.1,87.5,220,90.9"/>
		<path class="st10" d="M208.8,108.1c7.5-3.8,3.9-11.5-0.4-13.2C210.2,99.1,209.5,103.3,208.8,108.1"/>
		<path class="st10" d="M205.6,75.8c-4.2-2.2-2.2-6.4,0.2-7.3C204.9,70.8,205.3,73.1,205.6,75.8"/>
		<path class="st10" d="M219.6,117.7c-4.2-2.2-2.2-6.4,0.2-7.3C218.8,112.7,219.1,115,219.6,117.7"/>
	</g>
</g>
</svg>
